<?xml version="1.0" encoding="utf-8"?>

<!DOCTYPE svg PUBLIC "-//W3C//DTD SVG 1.1//EN" "http://www.w3.org/Graphics/SVG/1.1/DTD/svg11.dtd">
<!-- Uploaded to: SVG Repo, www.svgrepo.com, Generator: SVG Repo Mixer Tools -->
<svg height="800px" width="800px" version="1.1" id="_x32_" xmlns="http://www.w3.org/2000/svg" xmlns:xlink="http://www.w3.org/1999/xlink" 
	 viewBox="0 0 512 512"  xml:space="preserve">
<style type="text/css">
	.st0{fill:#000000;}
</style>
<g>
	<path class="st0" d="M315.656,149.531l-14.166,35.403l10.236-1.259c35.35-4.424,69.181-17.656,85.251-24.591
		c15.266-5.455,28.445-14.772,37.922-26.874c9.56-12.185,15.372-27.337,15.348-43.703c0.023-10.698-2.481-20.926-6.859-30.099
		c-6.616-13.778-17.466-25.205-30.865-33.21c-13.422-8.005-29.47-12.61-46.677-12.626c-22.929,0.016-43.817,8.187-59.174,21.73
		c-7.671,6.775-13.976,14.909-18.362,24.105c-4.4,9.173-6.866,19.401-6.866,30.099c-0.015,13.658,4.021,26.495,10.926,37.436
		C298.273,135.297,306.255,143.286,315.656,149.531z M298.706,64.613c5.311-11.137,14.386-20.865,26.017-27.808
		c11.632-6.942,25.813-11.07,41.124-11.062c20.44-0.008,38.801,7.33,51.866,18.885c6.526,5.774,11.738,12.565,15.281,19.984
		c3.544,7.428,5.47,15.456,5.478,23.893c-0.008,12.868-4.484,24.857-12.436,35.031c-7.936,10.159-19.4,18.369-32.96,23.134
		l-0.189,0.053l-0.182,0.076c-13.9,6.047-42.041,17.018-71.936,22.215l10.137-25.288l-4.97-2.838
		c-10.053-5.743-18.27-13.558-23.93-22.519c-5.66-9.006-8.763-19.097-8.778-29.864C293.228,80.069,295.155,72.041,298.706,64.613z"
		/>
	<path class="st0" d="M332.553,100.6c5.069,0,9.173-4.583,9.173-10.243c0-5.63-4.104-10.22-9.173-10.22
		c-5.046,0-9.158,4.59-9.158,10.22C323.395,96.017,327.508,100.6,332.553,100.6z"/>
	<path class="st0" d="M367.918,100.6c5.053,0,9.166-4.583,9.166-10.243c0-5.63-4.112-10.22-9.166-10.22
		c-5.069,0-9.181,4.59-9.181,10.22C358.737,96.017,362.849,100.6,367.918,100.6z"/>
	<path class="st0" d="M403.259,100.6c5.068,0,9.166-4.583,9.166-10.243c0-5.63-4.098-10.22-9.166-10.22
		c-5.068,0-9.166,4.59-9.166,10.22C394.094,96.017,398.191,100.6,403.259,100.6z"/>
	<path class="st0" d="M511.099,484.064l-81.428-189.175c-1.745-4.044-5.721-6.662-10.122-6.662H92.46
		c-4.401,0-8.377,2.618-10.122,6.654L0.895,484.064c-1.457,3.399-1.123,7.315,0.91,10.41c2.049,3.088,5.493,4.954,9.211,4.954
		h153.462c13.096-22.148,35.691-38.218,67.391-43.415c7.299,2.42,15.084,3.786,23.187,3.786c8.103,0,15.888-1.366,23.187-3.786
		c31.685,5.197,54.28,21.267,67.376,43.415h155.373c3.703,0,7.163-1.866,9.196-4.954
		C512.221,491.379,512.57,487.463,511.099,484.064z M311.946,386.059c0,31.419-25.478,56.89-56.89,56.89
		c-31.427,0-56.89-25.472-56.89-56.89v-16.146c0-31.42,25.463-56.89,56.89-56.89c31.412,0,56.89,25.471,56.89,56.89V386.059z"/>
	<path class="st0" d="M316.718,264.335c0-27.626-16.214-50.388-47.186-55.47c-4.264,1.418-8.809,2.215-13.536,2.215
		c-4.742,0-9.287-0.796-13.551-2.215c-30.971,5.083-47.178,27.845-47.178,55.47h60.729H316.718z"/>
	<path class="st0" d="M255.997,201.231c18.346,0,33.232-14.878,33.232-33.232v-9.431c0-18.362-14.886-33.24-33.232-33.24
		c-18.361,0-33.248,14.878-33.248,33.24v9.431C222.749,186.352,237.636,201.231,255.997,201.231z"/>
</g>
</svg>