<?xml version="1.0" encoding="utf-8"?>
<!-- Uploaded to: SVG Repo, www.svgrepo.com, Generator: SVG Repo Mixer Tools -->
<svg width="800px" height="800px" viewBox="0 0 32 32" xmlns="http://www.w3.org/2000/svg" xmlns:xlink="http://www.w3.org/1999/xlink">
  <defs>
    <clipPath id="clip-calendar">
      <rect width="32" height="32"/>
    </clipPath>
  </defs>
  <g id="calendar" clip-path="url(#clip-calendar)">
    <g id="Group_2954" data-name="Group 2954" transform="translate(-416 -156)">
      <g id="Group_2860" data-name="Group 2860">
        <g id="Group_2859" data-name="Group 2859">
          <g id="Group_2858" data-name="Group 2858">
            <path id="Path_3941" data-name="Path 3941" d="M445.936,158.035H440.95v-.941a1,1,0,0,0-2,0v.941h-3.378v-.941a1,1,0,0,0-2,0v.941h-3.331v-.941a1,1,0,0,0-2,0v.941H425.05v-.941a1,1,0,1,0-2,0v.941h-4.986a1,1,0,0,0-1,1v27.871a1,1,0,0,0,1,1h27.872a1,1,0,0,0,1-1V159.035A1,1,0,0,0,445.936,158.035Zm-22.886,2v.941a1,1,0,0,0,2,0v-.941h3.191v.941a1,1,0,0,0,2,0v-.941h3.331v.941a1,1,0,0,0,2,0v-.941h3.378v.941a1,1,0,1,0,2,0v-.941h3.986v5.09H419.064v-5.09Zm-3.986,25.871V166.125h25.872v19.781Z" fill="#344952"/>
          </g>
        </g>
      </g>
      <g id="Group_2863" data-name="Group 2863">
        <g id="Group_2862" data-name="Group 2862">
          <g id="Group_2861" data-name="Group 2861">
            <circle id="Ellipse_15" data-name="Ellipse 15" cx="0.991" cy="0.991" r="0.991" transform="translate(434.379 168.026)" fill="#344952"/>
          </g>
        </g>
      </g>
      <g id="Group_2866" data-name="Group 2866">
        <g id="Group_2865" data-name="Group 2865">
          <g id="Group_2864" data-name="Group 2864">
            <circle id="Ellipse_16" data-name="Ellipse 16" cx="0.991" cy="0.991" r="0.991" transform="translate(437.896 168.026)" fill="#344952"/>
          </g>
        </g>
      </g>
      <g id="Group_2869" data-name="Group 2869">
        <g id="Group_2868" data-name="Group 2868">
          <g id="Group_2867" data-name="Group 2867">
            <path id="Path_3942" data-name="Path 3942" d="M442.4,168.026a.992.992,0,1,0,.992.992A.992.992,0,0,0,442.4,168.026Z" fill="#344952"/>
          </g>
        </g>
      </g>
      <g id="Group_2872" data-name="Group 2872">
        <g id="Group_2871" data-name="Group 2871">
          <g id="Group_2870" data-name="Group 2870">
            <path id="Path_3943" data-name="Path 3943" d="M421.3,171.528a.992.992,0,1,0,.992.991A.991.991,0,0,0,421.3,171.528Z" fill="#344952"/>
          </g>
        </g>
      </g>
      <g id="Group_2875" data-name="Group 2875">
        <g id="Group_2874" data-name="Group 2874">
          <g id="Group_2873" data-name="Group 2873">
            <path id="Path_3944" data-name="Path 3944" d="M424.818,171.528a.992.992,0,1,0,.991.991A.992.992,0,0,0,424.818,171.528Z" fill="#344952"/>
          </g>
        </g>
      </g>
      <g id="Group_2878" data-name="Group 2878">
        <g id="Group_2877" data-name="Group 2877">
          <g id="Group_2876" data-name="Group 2876">
            <circle id="Ellipse_17" data-name="Ellipse 17" cx="0.991" cy="0.991" r="0.991" transform="translate(427.344 171.528)" fill="#344952"/>
          </g>
        </g>
      </g>
      <g id="Group_2881" data-name="Group 2881">
        <g id="Group_2880" data-name="Group 2880">
          <g id="Group_2879" data-name="Group 2879">
            <circle id="Ellipse_18" data-name="Ellipse 18" cx="0.991" cy="0.991" r="0.991" transform="translate(430.861 171.528)" fill="#344952"/>
          </g>
        </g>
      </g>
      <g id="Group_2884" data-name="Group 2884">
        <g id="Group_2883" data-name="Group 2883">
          <g id="Group_2882" data-name="Group 2882">
            <circle id="Ellipse_19" data-name="Ellipse 19" cx="0.991" cy="0.991" r="0.991" transform="translate(434.379 171.528)" fill="#344952"/>
          </g>
        </g>
      </g>
      <g id="Group_2887" data-name="Group 2887">
        <g id="Group_2886" data-name="Group 2886">
          <g id="Group_2885" data-name="Group 2885">
            <circle id="Ellipse_20" data-name="Ellipse 20" cx="0.991" cy="0.991" r="0.991" transform="translate(437.896 171.528)" fill="#344952"/>
          </g>
        </g>
      </g>
      <g id="Group_2890" data-name="Group 2890">
        <g id="Group_2889" data-name="Group 2889">
          <g id="Group_2888" data-name="Group 2888">
            <path id="Path_3945" data-name="Path 3945" d="M442.4,171.528a.992.992,0,1,0,.992.991A.991.991,0,0,0,442.4,171.528Z" fill="#344952"/>
          </g>
        </g>
      </g>
      <g id="Group_2893" data-name="Group 2893">
        <g id="Group_2892" data-name="Group 2892">
          <g id="Group_2891" data-name="Group 2891">
            <path id="Path_3946" data-name="Path 3946" d="M421.3,175.029a.991.991,0,1,0,.992.992A.992.992,0,0,0,421.3,175.029Z" fill="#344952"/>
          </g>
        </g>
      </g>
      <g id="Group_2896" data-name="Group 2896">
        <g id="Group_2895" data-name="Group 2895">
          <g id="Group_2894" data-name="Group 2894">
            <path id="Path_3947" data-name="Path 3947" d="M424.818,175.029a.991.991,0,1,0,.991.992A.992.992,0,0,0,424.818,175.029Z" fill="#344952"/>
          </g>
        </g>
      </g>
      <g id="Group_2899" data-name="Group 2899">
        <g id="Group_2898" data-name="Group 2898">
          <g id="Group_2897" data-name="Group 2897">
            <path id="Path_3948" data-name="Path 3948" d="M428.335,174.029a1.991,1.991,0,1,0,1.992,1.992A1.994,1.994,0,0,0,428.335,174.029Zm0,2.983a.991.991,0,1,1,.992-.991A.991.991,0,0,1,428.335,177.012Z" fill="#344952"/>
          </g>
        </g>
      </g>
      <g id="Group_2902" data-name="Group 2902">
        <g id="Group_2901" data-name="Group 2901">
          <g id="Group_2900" data-name="Group 2900">
            <circle id="Ellipse_21" data-name="Ellipse 21" cx="0.991" cy="0.991" r="0.991" transform="translate(430.861 175.029)" fill="#344952"/>
          </g>
        </g>
      </g>
      <g id="Group_2905" data-name="Group 2905">
        <g id="Group_2904" data-name="Group 2904">
          <g id="Group_2903" data-name="Group 2903">
            <circle id="Ellipse_22" data-name="Ellipse 22" cx="0.991" cy="0.991" r="0.991" transform="translate(434.379 175.029)" fill="#344952"/>
          </g>
        </g>
      </g>
      <g id="Group_2908" data-name="Group 2908">
        <g id="Group_2907" data-name="Group 2907">
          <g id="Group_2906" data-name="Group 2906">
            <circle id="Ellipse_23" data-name="Ellipse 23" cx="0.991" cy="0.991" r="0.991" transform="translate(437.896 175.029)" fill="#344952"/>
          </g>
        </g>
      </g>
      <g id="Group_2911" data-name="Group 2911">
        <g id="Group_2910" data-name="Group 2910">
          <g id="Group_2909" data-name="Group 2909">
            <path id="Path_3949" data-name="Path 3949" d="M442.4,175.029a.991.991,0,1,0,.992.992A.992.992,0,0,0,442.4,175.029Z" fill="#344952"/>
          </g>
        </g>
      </g>
      <g id="Group_2914" data-name="Group 2914">
        <g id="Group_2913" data-name="Group 2913">
          <g id="Group_2912" data-name="Group 2912">
            <path id="Path_3950" data-name="Path 3950" d="M421.3,178.531a.992.992,0,1,0,.992.991A.991.991,0,0,0,421.3,178.531Z" fill="#344952"/>
          </g>
        </g>
      </g>
      <g id="Group_2917" data-name="Group 2917">
        <g id="Group_2916" data-name="Group 2916">
          <g id="Group_2915" data-name="Group 2915">
            <path id="Path_3951" data-name="Path 3951" d="M424.818,178.531a.992.992,0,1,0,.991.991A.992.992,0,0,0,424.818,178.531Z" fill="#344952"/>
          </g>
        </g>
      </g>
      <g id="Group_2920" data-name="Group 2920">
        <g id="Group_2919" data-name="Group 2919">
          <g id="Group_2918" data-name="Group 2918">
            <circle id="Ellipse_24" data-name="Ellipse 24" cx="0.991" cy="0.991" r="0.991" transform="translate(427.344 178.531)" fill="#344952"/>
          </g>
        </g>
      </g>
      <g id="Group_2923" data-name="Group 2923">
        <g id="Group_2922" data-name="Group 2922">
          <g id="Group_2921" data-name="Group 2921">
            <circle id="Ellipse_25" data-name="Ellipse 25" cx="0.991" cy="0.991" r="0.991" transform="translate(430.861 178.531)" fill="#344952"/>
          </g>
        </g>
      </g>
      <g id="Group_2926" data-name="Group 2926">
        <g id="Group_2925" data-name="Group 2925">
          <g id="Group_2924" data-name="Group 2924">
            <circle id="Ellipse_26" data-name="Ellipse 26" cx="0.991" cy="0.991" r="0.991" transform="translate(434.379 178.531)" fill="#344952"/>
          </g>
        </g>
      </g>
      <g id="Group_2929" data-name="Group 2929">
        <g id="Group_2928" data-name="Group 2928">
          <g id="Group_2927" data-name="Group 2927">
            <circle id="Ellipse_27" data-name="Ellipse 27" cx="0.991" cy="0.991" r="0.991" transform="translate(437.896 178.531)" fill="#344952"/>
          </g>
        </g>
      </g>
      <g id="Group_2932" data-name="Group 2932">
        <g id="Group_2931" data-name="Group 2931">
          <g id="Group_2930" data-name="Group 2930">
            <path id="Path_3952" data-name="Path 3952" d="M442.4,178.531a.992.992,0,1,0,.992.991A.991.991,0,0,0,442.4,178.531Z" fill="#344952"/>
          </g>
        </g>
      </g>
      <g id="Group_2935" data-name="Group 2935">
        <g id="Group_2934" data-name="Group 2934">
          <g id="Group_2933" data-name="Group 2933">
            <path id="Path_3953" data-name="Path 3953" d="M421.3,182.033a.992.992,0,1,0,.992.991A.991.991,0,0,0,421.3,182.033Z" fill="#344952"/>
          </g>
        </g>
      </g>
      <g id="Group_2938" data-name="Group 2938">
        <g id="Group_2937" data-name="Group 2937">
          <g id="Group_2936" data-name="Group 2936">
            <path id="Path_3954" data-name="Path 3954" d="M424.818,182.033a.992.992,0,1,0,.991.991A.992.992,0,0,0,424.818,182.033Z" fill="#344952"/>
          </g>
        </g>
      </g>
      <g id="Group_2941" data-name="Group 2941">
        <g id="Group_2940" data-name="Group 2940">
          <g id="Group_2939" data-name="Group 2939">
            <circle id="Ellipse_28" data-name="Ellipse 28" cx="0.991" cy="0.991" r="0.991" transform="translate(427.344 182.033)" fill="#344952"/>
          </g>
        </g>
      </g>
      <g id="Group_2944" data-name="Group 2944">
        <g id="Group_2943" data-name="Group 2943">
          <g id="Group_2942" data-name="Group 2942">
            <circle id="Ellipse_29" data-name="Ellipse 29" cx="0.991" cy="0.991" r="0.991" transform="translate(430.861 182.033)" fill="#344952"/>
          </g>
        </g>
      </g>
      <g id="Group_2947" data-name="Group 2947">
        <g id="Group_2946" data-name="Group 2946">
          <g id="Group_2945" data-name="Group 2945">
            <circle id="Ellipse_30" data-name="Ellipse 30" cx="0.991" cy="0.991" r="0.991" transform="translate(434.379 182.033)" fill="#344952"/>
          </g>
        </g>
      </g>
      <g id="Group_2950" data-name="Group 2950">
        <g id="Group_2949" data-name="Group 2949">
          <g id="Group_2948" data-name="Group 2948">
            <circle id="Ellipse_31" data-name="Ellipse 31" cx="0.991" cy="0.991" r="0.991" transform="translate(437.896 182.033)" fill="#344952"/>
          </g>
        </g>
      </g>
      <g id="Group_2953" data-name="Group 2953">
        <g id="Group_2952" data-name="Group 2952">
          <g id="Group_2951" data-name="Group 2951">
            <path id="Path_3955" data-name="Path 3955" d="M442.4,182.033a.992.992,0,1,0,.992.991A.991.991,0,0,0,442.4,182.033Z" fill="#344952"/>
          </g>
        </g>
      </g>
    </g>
  </g>
</svg>